<svg xmlns="http://www.w3.org/2000/svg" viewBox="0 0 100 100">
  <path fill="#ffffff"
    d="M80.3393333,72.1889722 L84.1640556,82.59175 L84.1640556,92.59175 L54.9982222,92.59175 L54.9987778,77.3284167 L58.2643333,76.1206389 C67.5743333,72.6775833 73.8290556,63.6920278 73.8290556,53.7614722 C73.8290556,50.3673056 73.1179444,47.0845278 71.7776667,44.0739722 L64.0121111,22.9528611 C67.6535,24.6111944 71.0062778,26.9259167 73.9204444,29.8398056 C80.3104444,36.2295278 83.8290556,44.7250833 83.8290556,53.7614722 C83.8290556,60.81175 81.6807222,67.5698056 77.6157222,73.3050833 C74.9443333,77.07425 71.5848889,80.2159167 67.7185,82.59175 L73.4796111,82.59175 L72.8668333,80.9250833 C75.1626667,78.9903611 77.2073889,76.7639722 78.9757222,74.2686944 C79.4571111,73.5895278 79.9093333,72.8945278 80.3393333,72.1889722 Z M27.1282222,47.0422222 L19.3715556,68.1402778 C17.2676667,63.6725 16.1679444,58.7927778 16.1679444,53.7613889 C16.1679444,44.725 19.6868333,36.2294444 26.0768333,29.8397222 C32.2162778,23.7005556 40.3007222,20.2130556 48.9398889,19.9494444 L48.9398889,19.9497222 C48.9515556,19.9494444 48.9632222,19.9488889 48.9748889,19.9480556 C48.9873889,19.9477778 48.9998889,19.9472222 49.0123889,19.9469444 L52.6837778,30.0858333 C51.7982222,29.9869444 50.9029444,29.9313889 49.9985,29.9313889 C43.6332222,29.9311111 37.6490556,32.41 33.1476667,36.9108333 C30.2787778,39.7797222 28.2357222,43.2530556 27.1282222,47.0422222 Z M35.2047778,58.7615 L26.6028333,82.5917778 L32.2786667,82.5917778 C31.197,81.9270556 30.1567222,81.2003889 29.1583889,80.419 L32.8250556,70.2615 C35.2695,72.8165 38.2914444,74.8478889 41.7322778,76.1203889 L44.9972778,77.3281667 L44.9992222,92.5917778 L15.8333889,92.5917778 L15.8333889,82.5917778 L29.7456111,44.7512222 C30.8361667,42.3006667 32.3725556,40.0428889 34.3261667,38.0892778 C37.2547778,35.1609444 40.8595,33.1570556 44.7872778,32.2148333 L38.8145,48.7615 L50.1372778,52.774 L61.2181111,48.7615 L50.1631111,18.2667778 L49.822,18.2667778 C46.0295,18.2851111 42.3295,18.8926111 38.8275556,20.0492778 L43.3392222,7.77788889 L56.6578333,7.77788889 L71.2606111,47.4956667 C71.8506111,49.5053889 72.1625556,51.6087222 72.1625556,53.7615 C72.1625556,58.5987222 70.5617222,63.1909444 67.7981111,66.9315 L64.8397778,58.7615 L49.9986667,64.1356667 L35.2047778,58.7615 Z" />
</svg>
